<svg width="20" height="20" viewBox="0 0 20 20" fill="none" xmlns="http://www.w3.org/2000/svg">
<mask id="mask0_545_1905" style="mask-type:alpha" maskUnits="userSpaceOnUse" x="0" y="0" width="20" height="20">
<rect width="20" height="20" fill="#D9D9D9"/>
</mask>
<g mask="url(#mask0_545_1905)">
<path d="M0.833984 16.6666V14.3333C0.833984 13.861 0.955651 13.4269 1.19898 13.0308C1.44176 12.6352 1.76454 12.3333 2.16732 12.1249C3.02843 11.6944 3.90343 11.3713 4.79232 11.1558C5.68121 10.9408 6.58398 10.8333 7.50065 10.8333C8.41732 10.8333 9.3201 10.9408 10.209 11.1558C11.0979 11.3713 11.9729 11.6944 12.834 12.1249C13.2368 12.3333 13.5595 12.6352 13.8023 13.0308C14.0457 13.4269 14.1673 13.861 14.1673 14.3333V16.6666H0.833984ZM15.834 16.6666V14.1666C15.834 13.5555 15.664 12.9685 15.324 12.4058C14.9834 11.8435 14.5007 11.361 13.8757 10.9583C14.584 11.0416 15.2507 11.1838 15.8757 11.3849C16.5007 11.5866 17.084 11.8333 17.6257 12.1249C18.1257 12.4027 18.5076 12.7116 18.7715 13.0516C19.0354 13.3921 19.1673 13.7638 19.1673 14.1666V16.6666H15.834ZM7.50065 9.99992C6.58398 9.99992 5.79926 9.67353 5.14648 9.02075C4.49371 8.36797 4.16732 7.58325 4.16732 6.66659C4.16732 5.74992 4.49371 4.9652 5.14648 4.31242C5.79926 3.65964 6.58398 3.33325 7.50065 3.33325C8.41732 3.33325 9.20204 3.65964 9.85482 4.31242C10.5076 4.9652 10.834 5.74992 10.834 6.66659C10.834 7.58325 10.5076 8.36797 9.85482 9.02075C9.20204 9.67353 8.41732 9.99992 7.50065 9.99992ZM15.834 6.66659C15.834 7.58325 15.5076 8.36797 14.8548 9.02075C14.202 9.67353 13.4173 9.99992 12.5007 9.99992C12.3479 9.99992 12.1534 9.9827 11.9173 9.94825C11.6812 9.91325 11.4868 9.87492 11.334 9.83325C11.709 9.38881 11.997 8.89575 12.1982 8.35408C12.3998 7.81242 12.5007 7.24992 12.5007 6.66659C12.5007 6.08325 12.3998 5.52075 12.1982 4.97909C11.997 4.43742 11.709 3.94436 11.334 3.49992C11.5284 3.43047 11.7229 3.3852 11.9173 3.36409C12.1118 3.34353 12.3062 3.33325 12.5007 3.33325C13.4173 3.33325 14.202 3.65964 14.8548 4.31242C15.5076 4.9652 15.834 5.74992 15.834 6.66659ZM2.50065 14.9999H12.5007V14.3333C12.5007 14.1805 12.4626 14.0416 12.3865 13.9166C12.3098 13.7916 12.209 13.6944 12.084 13.6249C11.334 13.2499 10.577 12.9685 9.81315 12.7808C9.04926 12.5935 8.27843 12.4999 7.50065 12.4999C6.72287 12.4999 5.95204 12.5935 5.18815 12.7808C4.42426 12.9685 3.66732 13.2499 2.91732 13.6249C2.79232 13.6944 2.69176 13.7916 2.61565 13.9166C2.53898 14.0416 2.50065 14.1805 2.50065 14.3333V14.9999ZM7.50065 8.33325C7.95898 8.33325 8.35148 8.16992 8.67815 7.84325C9.00426 7.51714 9.16732 7.12492 9.16732 6.66659C9.16732 6.20825 9.00426 5.81603 8.67815 5.48992C8.35148 5.16325 7.95898 4.99992 7.50065 4.99992C7.04232 4.99992 6.6501 5.16325 6.32398 5.48992C5.99732 5.81603 5.83398 6.20825 5.83398 6.66659C5.83398 7.12492 5.99732 7.51714 6.32398 7.84325C6.6501 8.16992 7.04232 8.33325 7.50065 8.33325Z" fill="#1C1B1F"/>
</g>
</svg>
