<svg width="20" height="20" viewBox="0 0 20 20" fill="none" xmlns="http://www.w3.org/2000/svg">
<mask id="mask0_545_1911" style="mask-type:alpha" maskUnits="userSpaceOnUse" x="0" y="0" width="20" height="20">
<rect width="20" height="20" fill="#D9D9D9"/>
</mask>
<g mask="url(#mask0_545_1911)">
<path d="M9.99935 18.3334C8.86046 18.3334 7.78407 18.1145 6.77018 17.6767C5.75629 17.2395 4.87102 16.6423 4.11435 15.8851C3.35713 15.1284 2.7599 14.2431 2.32268 13.2292C1.8849 12.2154 1.66602 11.139 1.66602 10.0001C1.66602 8.8473 1.8849 7.76758 2.32268 6.76091C2.7599 5.75369 3.35713 4.87175 4.11435 4.11508C4.87102 3.35786 5.75629 2.76036 6.77018 2.32258C7.78407 1.88536 8.86046 1.66675 9.99935 1.66675C11.1521 1.66675 12.2318 1.88536 13.2385 2.32258C14.2457 2.76036 15.1277 3.35786 15.8843 4.11508C16.6416 4.87175 17.2388 5.75369 17.676 6.76091C18.1138 7.76758 18.3327 8.8473 18.3327 10.0001C18.3327 11.139 18.1138 12.2154 17.676 13.2292C17.2388 14.2431 16.6416 15.1284 15.8843 15.8851C15.1277 16.6423 14.2457 17.2395 13.2385 17.6767C12.2318 18.1145 11.1521 18.3334 9.99935 18.3334ZM9.99935 16.6251C10.3605 16.1251 10.673 15.6042 10.9368 15.0626C11.2007 14.5209 11.416 13.9445 11.5827 13.3334H8.41602C8.58268 13.9445 8.79796 14.5209 9.06185 15.0626C9.32574 15.6042 9.63824 16.1251 9.99935 16.6251ZM7.83268 16.2917C7.58268 15.8334 7.36407 15.3576 7.17685 14.8642C6.98907 14.3715 6.83268 13.8612 6.70768 13.3334H4.24935C4.65213 14.0279 5.15546 14.632 5.75935 15.1459C6.36379 15.6598 7.0549 16.0417 7.83268 16.2917ZM12.166 16.2917C12.9438 16.0417 13.6346 15.6598 14.2385 15.1459C14.843 14.632 15.3466 14.0279 15.7493 13.3334H13.291C13.166 13.8612 13.0099 14.3715 12.8227 14.8642C12.6349 15.3576 12.416 15.8334 12.166 16.2917ZM3.54102 11.6667H6.37435C6.33268 11.389 6.30129 11.1145 6.28018 10.8434C6.25963 10.5729 6.24935 10.2917 6.24935 10.0001C6.24935 9.70841 6.25963 9.4273 6.28018 9.15675C6.30129 8.88564 6.33268 8.61119 6.37435 8.33341H3.54102C3.47157 8.61119 3.41935 8.88564 3.38435 9.15675C3.3499 9.4273 3.33268 9.70841 3.33268 10.0001C3.33268 10.2917 3.3499 10.5729 3.38435 10.8434C3.41935 11.1145 3.47157 11.389 3.54102 11.6667ZM8.04102 11.6667H11.9577C11.9993 11.389 12.0307 11.1145 12.0518 10.8434C12.0724 10.5729 12.0827 10.2917 12.0827 10.0001C12.0827 9.70841 12.0724 9.4273 12.0518 9.15675C12.0307 8.88564 11.9993 8.61119 11.9577 8.33341H8.04102C7.99935 8.61119 7.96824 8.88564 7.94768 9.15675C7.92657 9.4273 7.91602 9.70841 7.91602 10.0001C7.91602 10.2917 7.92657 10.5729 7.94768 10.8434C7.96824 11.1145 7.99935 11.389 8.04102 11.6667ZM13.6243 11.6667H16.4577C16.5271 11.389 16.5793 11.1145 16.6143 10.8434C16.6488 10.5729 16.666 10.2917 16.666 10.0001C16.666 9.70841 16.6488 9.4273 16.6143 9.15675C16.5793 8.88564 16.5271 8.61119 16.4577 8.33341H13.6243C13.666 8.61119 13.6971 8.88564 13.7177 9.15675C13.7388 9.4273 13.7493 9.70841 13.7493 10.0001C13.7493 10.2917 13.7388 10.5729 13.7177 10.8434C13.6971 11.1145 13.666 11.389 13.6243 11.6667ZM13.291 6.66675H15.7493C15.3466 5.9723 14.843 5.36814 14.2385 4.85425C13.6346 4.34036 12.9438 3.95841 12.166 3.70841C12.416 4.16675 12.6349 4.6423 12.8227 5.13508C13.0099 5.62841 13.166 6.13897 13.291 6.66675ZM8.41602 6.66675H11.5827C11.416 6.05564 11.2007 5.47925 10.9368 4.93758C10.673 4.39591 10.3605 3.87508 9.99935 3.37508C9.63824 3.87508 9.32574 4.39591 9.06185 4.93758C8.79796 5.47925 8.58268 6.05564 8.41602 6.66675ZM4.24935 6.66675H6.70768C6.83268 6.13897 6.98907 5.62841 7.17685 5.13508C7.36407 4.6423 7.58268 4.16675 7.83268 3.70841C7.0549 3.95841 6.36379 4.34036 5.75935 4.85425C5.15546 5.36814 4.65213 5.9723 4.24935 6.66675Z" fill="#1C1B1F"/>
</g>
</svg>
