<svg width="20" height="20" viewBox="0 0 20 20" fill="none" xmlns="http://www.w3.org/2000/svg">
<mask id="mask0_545_1887" style="mask-type:alpha" maskUnits="userSpaceOnUse" x="0" y="0" width="20" height="20">
<rect width="20" height="20" fill="#D9D9D9"/>
</mask>
<g mask="url(#mask0_545_1887)">
<path d="M10.0007 10.0001C10.459 10.0001 10.8515 9.83675 11.1782 9.51008C11.5043 9.18397 11.6673 8.79175 11.6673 8.33341C11.6673 7.87508 11.5043 7.48258 11.1782 7.15591C10.8515 6.8298 10.459 6.66675 10.0007 6.66675C9.54232 6.66675 9.1501 6.8298 8.82398 7.15591C8.49732 7.48258 8.33398 7.87508 8.33398 8.33341C8.33398 8.79175 8.49732 9.18397 8.82398 9.51008C9.1501 9.83675 9.54232 10.0001 10.0007 10.0001ZM10.0007 16.1251C11.6951 14.5695 12.952 13.1562 13.7715 11.8851C14.5909 10.6145 15.0007 9.48619 15.0007 8.50008C15.0007 6.98619 14.5179 5.74647 13.5523 4.78091C12.5873 3.81591 11.4034 3.33341 10.0007 3.33341C8.59787 3.33341 7.41371 3.81591 6.44815 4.78091C5.48315 5.74647 5.00065 6.98619 5.00065 8.50008C5.00065 9.48619 5.41037 10.6145 6.22982 11.8851C7.04926 13.1562 8.30621 14.5695 10.0007 16.1251ZM10.0007 18.3334C7.76454 16.4306 6.09454 14.6631 4.99065 13.0309C3.88621 11.3992 3.33398 9.88897 3.33398 8.50008C3.33398 6.41675 4.00426 4.75703 5.34482 3.52091C6.68482 2.2848 8.23676 1.66675 10.0007 1.66675C11.7645 1.66675 13.3165 2.2848 14.6565 3.52091C15.997 4.75703 16.6673 6.41675 16.6673 8.50008C16.6673 9.88897 16.1154 11.3992 15.0115 13.0309C13.907 14.6631 12.2368 16.4306 10.0007 18.3334Z" fill="#1C1B1F"/>
</g>
</svg>
