<svg width="20" height="20" viewBox="0 0 20 20" fill="none" xmlns="http://www.w3.org/2000/svg">
<mask id="mask0_545_1917" style="mask-type:alpha" maskUnits="userSpaceOnUse" x="0" y="0" width="20" height="20">
<rect width="20" height="20" fill="#D9D9D9"/>
</mask>
<g mask="url(#mask0_545_1917)">
<path d="M3.33268 16.6666C2.87435 16.6666 2.48213 16.5035 2.15602 16.1774C1.82935 15.8508 1.66602 15.4583 1.66602 14.9999V4.99992C1.66602 4.54159 1.82935 4.14936 2.15602 3.82325C2.48213 3.49659 2.87435 3.33325 3.33268 3.33325H16.666C17.1243 3.33325 17.5168 3.49659 17.8435 3.82325C18.1696 4.14936 18.3327 4.54159 18.3327 4.99992V14.9999C18.3327 15.4583 18.1696 15.8508 17.8435 16.1774C17.5168 16.5035 17.1243 16.6666 16.666 16.6666H3.33268ZM9.99935 10.8333L3.33268 6.66659V14.9999H16.666V6.66659L9.99935 10.8333ZM9.99935 9.16658L16.666 4.99992H3.33268L9.99935 9.16658ZM3.33268 6.66659V4.99992V14.9999V6.66659Z" fill="#1C1B1F"/>
</g>
</svg>
