<svg width="20" height="20" viewBox="0 0 20 20" fill="none" xmlns="http://www.w3.org/2000/svg">
<mask id="mask0_545_1923" style="mask-type:alpha" maskUnits="userSpaceOnUse" x="0" y="0" width="20" height="20">
<rect width="20" height="20" fill="#D9D9D9"/>
</mask>
<g mask="url(#mask0_545_1923)">
<path d="M3.375 17.5C3.125 17.5 2.91667 17.4167 2.75 17.25C2.58333 17.0833 2.5 16.875 2.5 16.625V13.25C2.5 13.0556 2.5625 12.8853 2.6875 12.7392C2.8125 12.5936 2.97222 12.5 3.16667 12.4583L6.04167 11.875C6.23611 11.8472 6.43417 11.8644 6.63583 11.9267C6.83694 11.9894 7 12.0833 7.125 12.2083L9.08333 14.1667C10.1389 13.5278 11.1078 12.7708 11.99 11.8958C12.8717 11.0208 13.6042 10.0833 14.1875 9.08333L12.1667 7.04167C12.0417 6.91667 11.9617 6.77417 11.9267 6.61417C11.8922 6.45472 11.8889 6.27778 11.9167 6.08333L12.4583 3.16667C12.4861 2.97222 12.5764 2.8125 12.7292 2.6875C12.8819 2.5625 13.0556 2.5 13.25 2.5H16.625C16.875 2.5 17.0833 2.58333 17.25 2.75C17.4167 2.91667 17.5 3.125 17.5 3.375C17.5 5.16667 17.1006 6.91306 16.3017 8.61417C15.5033 10.3158 14.4478 11.8228 13.135 13.135C11.8228 14.4478 10.3161 15.5033 8.615 16.3017C6.91333 17.1006 5.16667 17.5 3.375 17.5ZM14.9792 7.5C15.2153 6.95833 15.3958 6.40972 15.5208 5.85417C15.6458 5.29861 15.7431 4.73611 15.8125 4.16667H13.9583L13.6042 6.125L14.9792 7.5ZM7.52083 14.9583L6.125 13.5625L4.16667 13.9583V15.7917C4.73611 15.75 5.30222 15.6597 5.865 15.5208C6.42722 15.3819 6.97917 15.1944 7.52083 14.9583Z" fill="#1C1B1F"/>
</g>
</svg>
