<svg width="16" height="16" viewBox="0 0 16 16" fill="none" xmlns="http://www.w3.org/2000/svg">
<path d="M12.2597 6.66002C12.2597 9.42669 9.55975 12.7534 8.45975 13.9934C8.21308 14.2667 7.78641 14.2667 7.53975 13.9934C6.43975 12.7534 3.73975 9.42669 3.73975 6.66002C3.73975 4.30669 5.64641 2.40002 7.99975 2.40002C10.3531 2.40002 12.2597 4.30669 12.2597 6.66002Z" stroke="#1C1B1F" stroke-width="1.2" stroke-miterlimit="10" stroke-linecap="round" stroke-linejoin="round"/>
<path d="M7.99329 8.3667C8.93585 8.3667 9.69995 7.6026 9.69995 6.66004C9.69995 5.71747 8.93585 4.95337 7.99329 4.95337C7.05072 4.95337 6.28662 5.71747 6.28662 6.66004C6.28662 7.6026 7.05072 8.3667 7.99329 8.3667Z" stroke="#1C1B1F" stroke-width="1.2" stroke-miterlimit="10" stroke-linecap="round" stroke-linejoin="round"/>
</svg>
