<svg width="16" height="16" viewBox="0 0 16 16" fill="none" xmlns="http://www.w3.org/2000/svg">
<path d="M12.0659 6.00239C13.134 6.00239 13.9998 5.10642 13.9998 4.00119C13.9998 2.89597 13.134 2 12.0659 2C10.9978 2 10.132 2.89597 10.132 4.00119C10.132 5.10642 10.9978 6.00239 12.0659 6.00239Z" stroke="#1C1B1F" stroke-width="1.2" stroke-miterlimit="10" stroke-linecap="round" stroke-linejoin="round"/>
<path d="M3.9338 9.99751C5.00187 9.99751 5.86772 9.10154 5.86772 7.99631C5.86772 6.89108 5.00187 5.99512 3.9338 5.99512C2.86572 5.99512 1.99988 6.89108 1.99988 7.99631C1.99988 9.10154 2.86572 9.99751 3.9338 9.99751Z" stroke="#1C1B1F" stroke-width="1.2" stroke-miterlimit="10" stroke-linecap="round" stroke-linejoin="round"/>
<path d="M12.0659 13.9999C13.134 13.9999 13.9998 13.104 13.9998 11.9988C13.9998 10.8935 13.134 9.99756 12.0659 9.99756C10.9978 9.99756 10.132 10.8935 10.132 11.9988C10.132 13.104 10.9978 13.9999 12.0659 13.9999Z" stroke="#1C1B1F" stroke-width="1.2" stroke-miterlimit="10" stroke-linecap="round" stroke-linejoin="round"/>
<path d="M10.3476 4.91553L5.65198 7.08949" stroke="#1C1B1F" stroke-width="1.2" stroke-miterlimit="10" stroke-linecap="round" stroke-linejoin="round"/>
<path d="M10.3479 11.0847L5.70789 8.94678" stroke="#1C1B1F" stroke-width="1.2" stroke-miterlimit="10" stroke-linecap="round" stroke-linejoin="round"/>
</svg>
