<svg width="27" height="27" viewBox="0 0 27 27" fill="none" xmlns="http://www.w3.org/2000/svg">
<path d="M25.0938 26.625C21.9583 26.625 18.9022 25.926 15.9252 24.5279C12.9473 23.1308 10.3101 21.2836 8.01375 18.9862C5.71639 16.6899 3.86917 14.0527 2.47208 11.0748C1.07403 8.09785 0.375 5.04167 0.375 1.90625C0.375 1.46875 0.520833 1.10417 0.8125 0.8125C1.10417 0.520833 1.46875 0.375 1.90625 0.375H7.8125C8.15278 0.375 8.4566 0.484375 8.72396 0.703125C8.99132 0.921875 9.14931 1.20139 9.19792 1.54167L10.1458 6.64583C10.1944 6.98611 10.1886 7.29576 10.1283 7.57479C10.0671 7.85479 9.92708 8.10417 9.70833 8.32292L6.20833 11.8958C7.22917 13.6458 8.50521 15.2865 10.0365 16.8177C11.5677 18.349 13.2569 19.6736 15.1042 20.7917L18.5312 17.3646C18.75 17.1458 19.0358 16.9815 19.3888 16.8717C19.7407 16.7628 20.0868 16.7326 20.4271 16.7812L25.4583 17.8021C25.7986 17.875 26.0781 18.0388 26.2969 18.2935C26.5156 18.5492 26.625 18.8472 26.625 19.1875V25.0938C26.625 25.5313 26.4792 25.8958 26.1875 26.1875C25.8958 26.4792 25.5313 26.625 25.0938 26.625Z" fill="#25518C"/>
</svg>
