<svg width="25" height="25" viewBox="0 0 25 25" fill="none" xmlns="http://www.w3.org/2000/svg">
<mask id="mask0_545_26" style="mask-type:alpha" maskUnits="userSpaceOnUse" x="0" y="0" width="25" height="25">
<rect width="25" height="25" fill="#D9D9D9"/>
</mask>
<g mask="url(#mask0_545_26)">
<path d="M8.74967 17.7083L12.4997 13.9583L16.2497 17.7083L17.708 16.2499L13.958 12.4999L17.708 8.74992L16.2497 7.29159L12.4997 11.0416L8.74967 7.29159L7.29134 8.74992L11.0413 12.4999L7.29134 16.2499L8.74967 17.7083ZM12.4997 22.9166C11.0587 22.9166 9.70454 22.643 8.43718 22.0958C7.16981 21.5492 6.06738 20.8072 5.12988 19.8697C4.19238 18.9322 3.45037 17.8298 2.90384 16.5624C2.35662 15.2951 2.08301 13.9409 2.08301 12.4999C2.08301 11.0589 2.35662 9.70478 2.90384 8.43742C3.45037 7.17006 4.19238 6.06763 5.12988 5.13013C6.06738 4.19263 7.16981 3.45027 8.43718 2.90304C9.70454 2.35652 11.0587 2.08325 12.4997 2.08325C13.9406 2.08325 15.2948 2.35652 16.5622 2.90304C17.8295 3.45027 18.932 4.19263 19.8695 5.13013C20.807 6.06763 21.549 7.17006 22.0955 8.43742C22.6427 9.70478 22.9163 11.0589 22.9163 12.4999C22.9163 13.9409 22.6427 15.2951 22.0955 16.5624C21.549 17.8298 20.807 18.9322 19.8695 19.8697C18.932 20.8072 17.8295 21.5492 16.5622 22.0958C15.2948 22.643 13.9406 22.9166 12.4997 22.9166ZM12.4997 20.8333C14.8261 20.8333 16.7965 20.026 18.4111 18.4114C20.0257 16.7968 20.833 14.8263 20.833 12.4999C20.833 10.1735 20.0257 8.20304 18.4111 6.58846C16.7965 4.97388 14.8261 4.16659 12.4997 4.16659C10.1733 4.16659 8.2028 4.97388 6.58822 6.58846C4.97363 8.20304 4.16634 10.1735 4.16634 12.4999C4.16634 14.8263 4.97363 16.7968 6.58822 18.4114C8.2028 20.026 10.1733 20.8333 12.4997 20.8333Z" fill="#1C1B1F"/>
</g>
</svg>
