<svg width="18" height="18" viewBox="0 0 18 18" fill="none" xmlns="http://www.w3.org/2000/svg">
<mask id="mask0_477_223" style="mask-type:alpha" maskUnits="userSpaceOnUse" x="0" y="0" width="18" height="18">
<rect width="18" height="18" fill="#D9D9D9"/>
</mask>
<g mask="url(#mask0_477_223)">
<path d="M15.75 9L12.4875 13.6125C12.35 13.8125 12.172 13.9688 11.9535 14.0812C11.7345 14.1937 11.5 14.25 11.25 14.25H3.75C3.3375 14.25 2.98425 14.1033 2.69025 13.8097C2.39675 13.5157 2.25 13.1625 2.25 12.75V5.25C2.25 4.8375 2.39675 4.4845 2.69025 4.191C2.98425 3.897 3.3375 3.75 3.75 3.75H11.25C11.5 3.75 11.7345 3.80625 11.9535 3.91875C12.172 4.03125 12.35 4.1875 12.4875 4.3875L15.75 9ZM13.9125 9L11.25 5.25H3.75V12.75H11.25L13.9125 9Z" fill="#1C1B1F"/>
</g>
</svg>
