<svg width="31" height="25" viewBox="0 0 31 25" fill="none" xmlns="http://www.w3.org/2000/svg">
<path d="M3.83341 24.1667C3.03133 24.1667 2.34494 23.8813 1.77425 23.3106C1.20258 22.739 0.916748 22.0521 0.916748 21.25V3.74999C0.916748 2.94791 1.20258 2.26152 1.77425 1.69083C2.34494 1.11916 3.03133 0.833328 3.83341 0.833328H27.1667C27.9688 0.833328 28.6557 1.11916 29.2274 1.69083C29.7981 2.26152 30.0834 2.94791 30.0834 3.74999V21.25C30.0834 22.0521 29.7981 22.739 29.2274 23.3106C28.6557 23.8813 27.9688 24.1667 27.1667 24.1667H3.83341ZM15.5001 13.9583L27.1667 6.66666V3.74999L15.5001 11.0417L3.83341 3.74999V6.66666L15.5001 13.9583Z" fill="#25518C"/>
</svg>
