<svg width="25" height="25" viewBox="0 0 25 25" fill="none" xmlns="http://www.w3.org/2000/svg">
<mask id="mask0_477_114" style="mask-type:alpha" maskUnits="userSpaceOnUse" x="0" y="0" width="25" height="25">
<rect width="25" height="25" fill="#D9D9D9"/>
</mask>
<g mask="url(#mask0_477_114)">
<path d="M4.16732 20.8334C3.5944 20.8334 3.10395 20.6294 2.69596 20.2214C2.28798 19.8134 2.08398 19.323 2.08398 18.7501V6.25008C2.08398 5.67716 2.28798 5.18671 2.69596 4.77873C3.10395 4.37074 3.5944 4.16675 4.16732 4.16675H20.834C21.4069 4.16675 21.8974 4.37074 22.3053 4.77873C22.7133 5.18671 22.9173 5.67716 22.9173 6.25008V18.7501C22.9173 19.323 22.7133 19.8134 22.3053 20.2214C21.8974 20.6294 21.4069 20.8334 20.834 20.8334H4.16732ZM12.5007 13.5417L20.834 8.33341V6.25008L12.5007 11.4584L4.16732 6.25008V8.33341L12.5007 13.5417Z" fill="#FCFCFC"/>
</g>
</svg>
