<svg width="18" height="18" viewBox="0 0 18 18" fill="none" xmlns="http://www.w3.org/2000/svg">
<mask id="mask0_477_217" style="mask-type:alpha" maskUnits="userSpaceOnUse" x="0" y="0" width="18" height="18">
<rect width="18" height="18" fill="#D9D9D9"/>
</mask>
<g mask="url(#mask0_477_217)">
<path d="M7.33125 9C6.88125 9 6.50625 8.83125 6.20625 8.49375C5.90625 8.15625 5.7875 7.7625 5.85 7.3125L6.09375 5.475C6.19375 4.7625 6.51875 4.172 7.06875 3.7035C7.61875 3.2345 8.2625 3 9 3C9.7375 3 10.3812 3.2345 10.9312 3.7035C11.4812 4.172 11.8062 4.7625 11.9062 5.475L12.15 7.3125C12.2125 7.7625 12.0938 8.15625 11.7938 8.49375C11.4938 8.83125 11.1188 9 10.6688 9H7.33125ZM7.33125 7.5H10.6688L10.425 5.7C10.375 5.35 10.2157 5.0625 9.94725 4.8375C9.67825 4.6125 9.3625 4.5 9 4.5C8.6375 4.5 8.322 4.6125 8.0535 4.8375C7.7845 5.0625 7.625 5.35 7.575 5.7L7.33125 7.5ZM3 15V12.9C3 12.475 3.1095 12.0843 3.3285 11.7277C3.547 11.3717 3.8375 11.1 4.2 10.9125C4.975 10.525 5.7625 10.2343 6.5625 10.0402C7.3625 9.84675 8.175 9.75 9 9.75C9.825 9.75 10.6375 9.84675 11.4375 10.0402C12.2375 10.2343 13.025 10.525 13.8 10.9125C14.1625 11.1 14.453 11.3717 14.6715 11.7277C14.8905 12.0843 15 12.475 15 12.9V15H3ZM4.5 13.5H13.5V12.9C13.5 12.7625 13.4658 12.6375 13.3973 12.525C13.3283 12.4125 13.2375 12.325 13.125 12.2625C12.45 11.925 11.7688 11.6718 11.0812 11.5028C10.3937 11.3342 9.7 11.25 9 11.25C8.3 11.25 7.60625 11.3342 6.91875 11.5028C6.23125 11.6718 5.55 11.925 4.875 12.2625C4.7625 12.325 4.672 12.4125 4.6035 12.525C4.5345 12.6375 4.5 12.7625 4.5 12.9V13.5Z" fill="#1C1B1F"/>
</g>
</svg>
