<svg width="31" height="31" viewBox="0 0 31 31" fill="none" xmlns="http://www.w3.org/2000/svg">
<path d="M20.3126 22.3542L22.3542 20.3125L16.9584 14.9167V8.20834H14.0417V16.0833L20.3126 22.3542ZM15.5001 30.0833C13.4827 30.0833 11.5869 29.7003 9.81258 28.9342C8.03828 28.169 6.49487 27.1302 5.18237 25.8177C3.86987 24.5052 2.83105 22.9618 2.06591 21.1875C1.2998 19.4132 0.916748 17.5174 0.916748 15.5C0.916748 13.4826 1.2998 11.5868 2.06591 9.8125C2.83105 8.0382 3.86987 6.4948 5.18237 5.1823C6.49487 3.8698 8.03828 2.83049 9.81258 2.06438C11.5869 1.29924 13.4827 0.916672 15.5001 0.916672C17.5174 0.916672 19.4133 1.29924 21.1876 2.06438C22.9619 2.83049 24.5053 3.8698 25.8178 5.1823C27.1303 6.4948 28.1691 8.0382 28.9342 9.8125C29.7004 11.5868 30.0834 13.4826 30.0834 15.5C30.0834 17.5174 29.7004 19.4132 28.9342 21.1875C28.1691 22.9618 27.1303 24.5052 25.8178 25.8177C24.5053 27.1302 22.9619 28.169 21.1876 28.9342C19.4133 29.7003 17.5174 30.0833 15.5001 30.0833Z" fill="#25518C"/>
</svg>
