<svg width="15" height="15" viewBox="0 0 15 15" fill="none" xmlns="http://www.w3.org/2000/svg">
<mask id="mask0_600_20" style="mask-type:alpha" maskUnits="userSpaceOnUse" x="0" y="0" width="15" height="15">
<rect width="15" height="15" fill="#D9D9D9"/>
</mask>
<g mask="url(#mask0_600_20)">
<path d="M4.28125 9.375C4.60417 9.375 4.89333 9.28125 5.14875 9.09375C5.40375 8.90625 5.58333 8.66146 5.6875 8.35938L5.92188 7.64063C6.08854 7.14063 6.04688 6.67958 5.79688 6.2575C5.54687 5.83583 5.1875 5.625 4.71875 5.625H2.51562L2.8125 8.07812C2.86458 8.44271 3.02854 8.75 3.30438 9C3.58063 9.25 3.90625 9.375 4.28125 9.375ZM10.7188 9.375C11.0938 9.375 11.4192 9.25 11.695 9C11.9712 8.75 12.1354 8.44271 12.1875 8.07812L12.4844 5.625H10.2969C9.82812 5.625 9.46875 5.83854 9.21875 6.26562C8.96875 6.69271 8.92708 7.15625 9.09375 7.65625L9.3125 8.35938C9.41667 8.66146 9.59625 8.90625 9.85125 9.09375C10.1067 9.28125 10.3958 9.375 10.7188 9.375ZM4.28125 10.625C3.59375 10.625 2.99229 10.3983 2.47688 9.945C1.96104 9.49208 1.66146 8.92188 1.57813 8.23438L1.25 5.625H0.625V4.375H4.71875C5.17708 4.375 5.59625 4.48688 5.97625 4.71063C6.35667 4.93479 6.65625 5.23958 6.875 5.625H8.14062C8.35937 5.23958 8.65896 4.93479 9.03938 4.71063C9.41938 4.48688 9.83854 4.375 10.2969 4.375H14.375V5.625H13.75L13.4219 8.23438C13.3385 8.92188 13.0392 9.49208 12.5238 9.945C12.0079 10.3983 11.4062 10.625 10.7188 10.625C10.125 10.625 9.59125 10.4558 9.1175 10.1175C8.64333 9.77875 8.3125 9.32812 8.125 8.76562L7.89062 8.0625C7.86979 7.98958 7.84896 7.91396 7.82812 7.83562C7.80729 7.75771 7.78646 7.64583 7.76562 7.5H7.23438C7.21354 7.625 7.19271 7.72646 7.17188 7.80438C7.15104 7.88271 7.13021 7.95833 7.10938 8.03125L6.875 8.75C6.6875 9.3125 6.35687 9.76562 5.88313 10.1094C5.40896 10.4531 4.875 10.625 4.28125 10.625Z" fill="#1C1B1F"/>
</g>
</svg>
