<svg width="13" height="12" viewBox="0 0 13 12" fill="none" xmlns="http://www.w3.org/2000/svg">
<path d="M6.50084 11.1249C6.41858 11.1254 6.33704 11.1097 6.26089 11.0786C6.18475 11.0475 6.11549 11.0016 6.05709 10.9437L1.20084 6.0812C0.591686 5.46569 0.25 4.63468 0.25 3.7687C0.25 2.90272 0.591686 2.07171 1.20084 1.4562C1.81475 0.844019 2.64636 0.500244 3.51334 0.500244C4.38032 0.500244 5.21192 0.844019 5.82584 1.4562L6.50084 2.1312L7.17584 1.4562C7.78975 0.844019 8.62136 0.500244 9.48834 0.500244C10.3553 0.500244 11.1869 0.844019 11.8008 1.4562C12.41 2.07171 12.7517 2.90272 12.7517 3.7687C12.7517 4.63468 12.41 5.46569 11.8008 6.0812L6.94459 10.9437C6.88619 11.0016 6.81693 11.0475 6.74078 11.0786C6.66463 11.1097 6.58309 11.1254 6.50084 11.1249Z" fill="#DE4404"/>
</svg>
