<?xml version="1.0" standalone="no"?>
<!DOCTYPE svg PUBLIC "-//W3C//DTD SVG 20010904//EN"
 "http://www.w3.org/TR/2001/REC-SVG-20010904/DTD/svg10.dtd">
<svg version="1.0" xmlns="http://www.w3.org/2000/svg"
 width="162.000000pt" height="162.000000pt" viewBox="0 0 162.000000 162.000000"
 preserveAspectRatio="xMidYMid meet">
<metadata>
Created by potrace 1.14, written by Peter Selinger 2001-2017
</metadata>
<g transform="translate(0.000000,162.000000) scale(0.100000,-0.100000)"
fill="#000000" stroke="none">
<path d="M720 1554 c-190 -23 -388 -119 -503 -244 -269 -290 -273 -697 -11
-989 233 -260 661 -331 985 -165 341 175 495 537 378 888 -26 79 -96 191 -166
266 -56 60 -178 146 -259 180 -109 47 -311 77 -424 64z m262 -69 c195 -41 387
-180 484 -351 84 -150 103 -357 47 -525 -70 -206 -265 -394 -471 -454 -138
-40 -311 -44 -440 -11 -235 61 -439 251 -508 473 -25 81 -30 266 -9 348 66
266 290 466 590 529 48 10 246 4 307 -9z"/>
<path d="M734 1446 c-10 -27 1 -71 19 -74 14 -3 17 4 17 42 0 35 -4 46 -15 46
-9 0 -18 -6 -21 -14z"/>
<path d="M780 1421 c0 -43 13 -59 35 -41 9 7 15 8 20 1 3 -6 16 -10 28 -9 12
0 29 -2 37 -6 9 -3 24 0 35 8 16 12 18 17 8 27 -19 19 -16 28 7 22 15 -4 19
-13 17 -36 -3 -40 27 -51 37 -13 4 15 13 26 22 26 12 0 13 -4 4 -21 -13 -23
-7 -49 10 -49 6 0 17 15 25 33 11 26 15 29 20 14 4 -9 1 -24 -6 -33 -10 -13
-10 -17 2 -25 10 -6 20 -1 36 18 12 15 25 24 29 20 4 -4 2 -13 -4 -19 -18 -18
-14 -46 7 -58 28 -14 57 -12 71 5 10 12 16 13 24 5 8 -8 5 -16 -11 -28 -16
-12 -20 -21 -13 -32 8 -12 13 -11 38 7 17 12 33 19 36 15 4 -3 -3 -14 -16 -24
-18 -14 -21 -21 -12 -34 17 -29 40 -39 55 -25 8 6 23 18 34 25 24 17 17 27
-69 98 l-58 49 -22 -20 c-31 -29 -42 -26 -21 5 16 24 16 26 0 38 -22 16 -167
70 -225 84 -28 7 -51 7 -62 1 -12 -6 -18 -6 -18 1 0 21 -30 9 -31 -12 l0 -23
-16 23 c-8 12 -24 22 -34 22 -15 0 -19 -8 -19 -39z m120 -22 c0 -6 -4 -7 -10
-4 -5 3 -10 11 -10 16 0 6 5 7 10 4 6 -3 10 -11 10 -16z"/>
<path d="M660 1435 c0 -12 -4 -13 -19 -4 -29 19 -49 5 -43 -28 5 -27 4 -28
-15 -10 -34 29 -60 22 -68 -19 -6 -36 -7 -36 -21 -15 -17 24 -44 28 -44 6 0
-8 -6 -12 -12 -10 -7 3 -19 1 -27 -4 -12 -8 -13 -15 -3 -38 l12 -28 -20 23
c-20 25 -46 21 -36 -5 4 -10 2 -13 -8 -10 -8 3 -22 0 -32 -8 -18 -13 -18 -14
1 -36 l20 -22 -37 7 c-45 8 -53 -3 -38 -52 20 -60 41 -70 45 -19 1 13 9 23 21
26 28 5 56 32 49 49 -4 10 0 12 10 8 19 -7 77 33 68 47 -4 6 0 8 10 4 20 -8
77 23 77 42 0 9 7 11 23 7 31 -7 67 3 67 20 0 11 4 12 19 3 10 -7 25 -9 34 -6
13 5 13 12 5 46 -10 39 -38 58 -38 26z"/>
<path d="M670 1324 c-116 -26 -240 -103 -316 -198 -52 -65 -76 -114 -99 -198
-32 -118 -4 -281 68 -394 36 -57 145 -155 208 -186 130 -65 314 -81 447 -39
187 58 325 195 376 374 74 256 -87 540 -355 628 -83 27 -239 33 -329 13z m307
-38 c115 -31 226 -115 290 -219 136 -223 77 -498 -139 -650 -88 -61 -156 -87
-264 -100 -80 -9 -104 -8 -176 8 -160 35 -293 134 -361 270 -72 144 -74 270
-7 412 114 242 381 355 657 279z"/>
<path d="M862 1213 c-13 -12 -21 -27 -17 -32 3 -6 1 -11 -4 -11 -19 0 -12 -22
9 -27 20 -5 25 -15 14 -26 -4 -3 -16 0 -27 8 -18 12 -24 12 -48 -2 -25 -15
-30 -15 -63 1 l-37 17 -110 -62 c-101 -57 -109 -64 -93 -76 11 -7 26 -19 35
-27 8 -7 22 -13 30 -13 8 0 43 -3 79 -6 41 -4 69 -2 78 5 7 6 12 7 11 2 -4
-21 2 -26 19 -13 16 13 16 13 2 -5 -8 -11 -34 -37 -57 -59 -39 -36 -49 -65
-18 -53 7 2 16 -2 19 -11 4 -8 13 -13 21 -9 8 3 17 1 21 -5 4 -6 11 -6 20 2 9
7 14 8 14 1 0 -10 20 -9 123 2 10 1 22 8 26 15 5 7 11 12 15 12 3 -1 6 2 5 5
0 4 5 11 13 16 10 6 3 17 -30 46 -50 44 -54 62 -12 59 16 -1 30 -6 30 -10 0
-5 8 -7 18 -5 9 1 22 0 27 -4 14 -9 105 11 105 23 0 5 3 9 8 8 14 -2 52 13 52
21 0 5 -21 21 -47 36 -27 15 -66 42 -89 61 -30 24 -51 33 -80 34 -37 0 -37 1
-14 11 16 6 20 12 12 15 -9 4 -10 8 -2 18 8 10 5 19 -12 37 l-23 24 -23 -23z
m-32 -113 c0 -21 -24 -28 -35 -10 -8 14 3 30 21 30 8 0 14 -9 14 -20z m-54
-32 c10 -33 -13 -46 -26 -14 -5 15 -10 31 -10 36 0 17 29 -1 36 -22z m86 -47
c-3 -42 -6 -48 -23 -44 -25 7 -26 -23 -1 -31 10 -3 6 -4 -8 -3 -14 1 -24 7
-23 12 1 6 -6 18 -14 28 -18 19 -16 23 37 61 19 13 35 25 35 25 0 1 -2 -21 -3
-48z"/>
<path d="M1185 1023 c-18 -28 -25 -51 -25 -86 0 -57 -15 -55 -24 3 -7 47 -26
54 -26 10 0 -17 -7 -44 -15 -61 -9 -16 -13 -34 -10 -39 3 -6 -1 -10 -9 -10 -9
0 -16 -4 -16 -9 0 -5 -15 -12 -34 -15 -20 -4 -45 -19 -58 -34 -13 -16 -62 -51
-109 -79 l-86 -50 -76 46 c-42 26 -89 58 -104 72 -15 15 -43 35 -61 45 -18 10
-30 24 -27 31 2 7 0 26 -6 41 -6 15 -11 42 -11 60 0 40 -16 42 -24 2 -7 -34
-24 -31 -24 4 0 13 -9 35 -20 49 -11 14 -20 30 -20 36 0 6 -4 11 -10 11 -13 0
-13 -1 5 -44 14 -34 14 -43 0 -97 -8 -34 -15 -71 -15 -83 0 -24 28 -56 48 -56
7 0 12 -8 12 -17 1 -22 78 -63 118 -63 15 0 59 -15 97 -33 l70 -34 -33 -17
c-18 -9 -30 -21 -27 -26 3 -6 0 -7 -8 -4 -8 3 -18 1 -22 -5 -3 -6 -17 -11 -31
-11 -17 0 -24 -5 -24 -20 0 -27 26 -36 48 -17 9 9 46 29 82 45 l66 29 59 -29
c33 -17 70 -39 82 -50 14 -14 28 -18 43 -13 23 7 24 34 0 45 -60 29 -107 55
-118 63 -19 15 97 67 165 74 37 4 58 13 74 29 12 13 31 24 41 24 13 0 18 7 18
26 0 14 4 23 9 20 5 -3 20 3 32 13 22 17 25 30 30 123 3 56 9 111 13 121 15
32 -13 18 -39 -20z m-695 -197 c0 -2 -7 -9 -15 -16 -12 -10 -15 -10 -15 4 0 9
7 16 15 16 8 0 15 -2 15 -4z m598 -23 c-3 -16 -93 -71 -124 -77 -7 -1 -18 -7
-25 -13 -19 -15 -219 -114 -219 -109 0 3 48 32 108 65 59 33 123 76 142 96 22
23 43 35 61 35 15 0 31 5 34 10 10 17 27 11 23 -7z m-539 -17 c15 -8 33 -22
40 -30 7 -8 42 -31 77 -51 35 -20 64 -38 64 -41 0 -9 -43 8 -80 31 -19 12 -50
27 -68 33 -38 13 -76 42 -79 60 -4 16 12 15 46 -2z"/>
<path d="M436 542 c-3 -5 -3 -18 1 -30 4 -16 9 -19 22 -13 9 5 22 6 29 4 13
-5 15 6 6 31 -6 17 -49 22 -58 8z"/>
<path d="M1084 538 c-6 -10 20 -38 37 -38 13 0 31 29 24 40 -8 14 -52 13 -61
-2z"/>
<path d="M1062 478 c3 -25 34 -36 51 -19 14 14 -9 41 -35 41 -14 0 -19 -6 -16
-22z"/>
<path d="M481 479 l-25 -10 23 -22 c22 -22 22 -22 37 -2 25 34 7 51 -35 34z"/>
<path d="M1015 450 c-8 -13 13 -40 31 -40 17 0 25 15 18 34 -7 18 -39 22 -49
6z"/>
<path d="M530 435 c-19 -23 -1 -39 21 -19 10 9 19 21 19 26 0 13 -27 9 -40 -7z"/>
<path d="M968 429 c-15 -8 -16 -13 -5 -32 6 -12 12 -23 13 -25 4 -10 34 14 34
28 0 26 -22 40 -42 29z"/>
<path d="M574 415 c-4 -10 0 -24 10 -33 16 -16 18 -16 32 3 18 24 13 39 -14
43 -14 2 -25 -3 -28 -13z"/>
<path d="M645 395 c16 -51 14 -50 35 -27 28 30 25 42 -10 42 -21 0 -28 -4 -25
-15z"/>
<path d="M876 402 c-2 -4 3 -17 12 -30 12 -15 23 -20 40 -16 25 7 30 24 6 24
-10 0 -14 6 -10 15 4 11 -1 15 -19 15 -13 0 -26 -4 -29 -8z"/>
<path d="M734 385 c-10 -24 4 -45 29 -45 20 0 24 5 24 30 0 25 -4 30 -24 30
-13 0 -26 -7 -29 -15z"/>
<path d="M810 375 c0 -28 25 -44 42 -27 15 15 -1 52 -23 52 -14 0 -19 -7 -19
-25z"/>
<path d="M1372 1122 c-18 -8 -31 -20 -29 -26 4 -12 58 -28 75 -21 7 3 10 0 7
-5 -3 -6 -12 -10 -20 -10 -28 0 -29 -73 0 -84 8 -3 11 -13 8 -25 -3 -12 -1
-21 5 -21 6 0 8 -9 5 -19 -4 -16 1 -19 34 -19 52 0 64 12 51 49 -5 16 -16 29
-23 29 -10 0 -11 7 -5 31 8 25 5 33 -15 51 -13 12 -22 25 -18 30 7 13 -17 58
-31 57 -6 0 -26 -8 -44 -17z m76 -104 c-6 -18 -28 -21 -28 -4 0 9 7 16 16 16
9 0 14 -5 12 -12z"/>
<path d="M164 1088 c-10 -24 -20 -46 -21 -49 -2 -3 7 -11 19 -17 22 -10 22
-11 3 -11 -29 -1 -45 -20 -45 -53 0 -23 7 -32 31 -42 22 -9 27 -15 16 -19 -8
-3 -23 1 -34 8 -10 8 -21 15 -25 15 -15 0 -8 -33 10 -46 16 -13 16 -14 0 -8
-14 5 -18 1 -18 -15 0 -17 6 -21 29 -21 16 0 36 -3 45 -6 12 -4 16 0 16 15 0
12 -5 21 -12 21 -6 0 -4 6 6 13 10 7 16 20 15 28 -2 7 3 24 10 37 7 13 11 31
9 40 -2 9 3 23 12 30 13 11 13 13 -2 25 -10 8 -14 17 -10 21 4 4 -2 14 -12 22
-27 19 -11 18 19 -2 23 -15 45 -12 45 6 0 9 -65 50 -79 50 -5 0 -17 -19 -27
-42z m16 -123 c0 -8 -7 -15 -15 -15 -8 0 -15 7 -15 15 0 8 7 15 15 15 8 0 15
-7 15 -15z"/>
<path d="M1437 842 c-19 -21 -22 -48 -7 -57 8 -5 7 -11 -1 -21 -6 -8 -9 -27
-7 -44 3 -16 0 -30 -5 -30 -5 0 -6 -11 -3 -25 4 -17 2 -25 -7 -25 -16 0 -41
-64 -27 -68 5 -2 10 -15 10 -29 0 -22 -2 -24 -16 -12 -15 12 -21 9 -50 -25
-23 -26 -31 -43 -24 -50 6 -8 2 -12 -12 -13 -31 -3 -55 -30 -40 -45 8 -8 15
-8 27 2 12 10 19 10 27 2 9 -9 6 -17 -12 -32 l-23 -20 -24 22 c-30 28 -54 12
-30 -22 8 -12 13 -30 10 -41 -8 -30 11 -23 67 28 40 36 51 51 47 70 -3 18 -1
21 9 12 14 -12 34 -4 34 12 0 6 -9 18 -20 27 -13 11 -17 22 -11 31 7 11 13 10
34 -4 27 -17 52 -12 44 9 -3 7 4 18 14 24 24 15 25 48 2 62 -15 8 -13 9 10 4
21 -5 27 -2 27 10 0 9 -8 16 -17 17 -15 0 -14 2 3 9 25 10 36 34 23 47 -6 6
-2 16 11 28 11 10 20 26 20 35 0 18 -30 50 -47 50 -13 0 -24 25 -16 34 14 13
33 5 33 -14 0 -11 7 -20 15 -20 23 0 20 57 -4 70 -28 15 -46 12 -64 -8z m43
-118 c0 -16 -16 -19 -25 -4 -8 13 4 32 16 25 5 -4 9 -13 9 -21z"/>
<path d="M104 785 c-8 -20 4 -35 27 -35 12 0 19 7 19 19 0 23 -39 36 -46 16z"/>
<path d="M148 713 c-40 -4 -51 -25 -22 -41 11 -6 13 -12 6 -16 -17 -11 -2 -36
22 -36 15 0 17 -3 8 -9 -21 -13 -11 -64 15 -76 17 -7 21 -15 17 -32 -4 -14 -2
-23 5 -23 6 0 11 -6 11 -13 0 -19 46 -60 59 -53 5 4 8 13 5 20 -3 9 3 17 15
21 22 7 28 29 10 40 -5 4 -19 -1 -29 -10 -13 -12 -23 -14 -36 -7 -14 8 -12 11
15 20 33 12 40 29 16 38 -8 4 -15 16 -15 28 0 26 -9 39 -35 54 -11 6 -14 12
-7 12 18 0 15 30 -4 30 -13 0 -14 3 -5 14 11 13 5 48 -8 44 -3 -1 -23 -3 -43
-5z m67 -133 c3 -6 -1 -13 -10 -16 -19 -8 -30 0 -20 15 8 14 22 14 30 1z"/>
<path d="M297 419 c-9 -23 -14 -46 -10 -52 3 -5 23 -7 45 -4 39 5 39 5 24 -18
-13 -19 -13 -25 -2 -34 7 -6 22 -8 31 -4 12 4 16 3 12 -4 -4 -6 0 -16 8 -23
13 -11 20 -9 38 9 13 11 27 21 32 21 5 0 1 -6 -9 -13 -25 -18 -16 -49 17 -60
23 -7 31 -6 42 9 14 18 14 17 15 -7 0 -15 7 -30 16 -33 31 -12 73 -6 83 12 6
9 11 12 11 5 0 -6 -5 -15 -12 -19 -7 -5 -5 -11 7 -21 29 -21 54 -16 65 13 9
22 13 24 25 14 18 -15 19 -21 4 -18 -21 5 -20 -19 1 -25 25 -7 56 21 41 36
-14 14 -14 30 -1 22 6 -3 10 0 10 8 0 20 -27 29 -50 17 -13 -7 -20 -6 -23 3
-3 9 -10 9 -30 -2 -25 -13 -28 -12 -51 12 -27 30 -46 33 -79 15 -20 -10 -21
-10 -8 5 11 14 11 18 -2 23 -9 3 -21 2 -28 -2 -7 -4 -9 -3 -6 3 4 6 -8 17 -26
24 -17 7 -37 20 -43 28 -7 9 -16 11 -25 6 -8 -5 -11 -4 -6 0 11 13 -23 45 -49
45 -16 0 -24 7 -26 22 -5 36 -24 31 -41 -13z m307 -168 c3 -5 -1 -14 -8 -20
-16 -13 -32 2 -21 19 8 12 22 13 29 1z"/>
<path d="M1087 314 c-3 -4 -2 -15 4 -26 6 -11 8 -27 4 -36 -5 -13 -10 -10 -21
17 -10 24 -17 31 -27 24 -6 -6 -29 -13 -49 -17 -21 -4 -42 -14 -47 -23 -7 -14
-12 -15 -24 -5 -9 8 -27 10 -43 7 -16 -4 -41 -6 -55 -6 -24 1 -27 -3 -31 -40
-4 -43 10 -65 19 -30 l6 22 18 -20 c24 -26 49 -17 49 17 l0 26 29 -28 c26 -25
30 -26 45 -11 9 9 19 28 23 43 l7 27 6 -25 c5 -21 12 -25 41 -24 48 2 129 39
129 60 0 10 -5 14 -15 10 -10 -4 -20 3 -27 19 -11 24 -28 32 -41 19z"/>
</g>
</svg>
